<svg width="667" height="24" viewBox="0 0 667 24" fill="none" xmlns="http://www.w3.org/2000/svg">
<path d="M12.0001 2C6.48608 2 2.00008 6.486 2.00008 12C2.00008 17.514 6.48608 22 12.0001 22C17.5141 22 22.0001 17.514 22.0001 12C22.0001 6.486 17.5141 2 12.0001 2ZM10.0011 16.413L6.28808 12.708L7.70008 11.292L9.99908 13.587L15.2931 8.293L16.7071 9.707L10.0011 16.413Z" fill="white"/>
<path d="M33.288 16.296V15.218L38.678 12.586L33.288 9.94V8.848L39.854 12.11V13.034L33.288 16.296ZM43.256 17.5V8.778L41.408 9.352L41.142 8.456L43.536 7.63H44.348V17.5H43.256ZM50.7656 17.668C48.2316 17.668 46.6356 15.372 46.6356 12.628V12.6C46.6356 9.856 48.2736 7.532 50.7936 7.532C53.3136 7.532 54.9096 9.828 54.9096 12.572V12.6C54.9096 15.344 53.2856 17.668 50.7656 17.668ZM50.7936 16.66C52.6416 16.66 53.7616 14.77 53.7616 12.628V12.6C53.7616 10.472 52.5996 8.54 50.7656 8.54C48.9316 8.54 47.7836 10.416 47.7836 12.572V12.6C47.7836 14.728 48.9456 16.66 50.7936 16.66ZM60.7734 17.668C58.2394 17.668 56.6434 15.372 56.6434 12.628V12.6C56.6434 9.856 58.2814 7.532 60.8014 7.532C63.3214 7.532 64.9174 9.828 64.9174 12.572V12.6C64.9174 15.344 63.2934 17.668 60.7734 17.668ZM60.8014 16.66C62.6494 16.66 63.7694 14.77 63.7694 12.628V12.6C63.7694 10.472 62.6074 8.54 60.7734 8.54C58.9394 8.54 57.7914 10.416 57.7914 12.572V12.6C57.7914 14.728 58.9534 16.66 60.8014 16.66ZM73.8445 17.654C72.1085 17.654 71.0725 16.478 71.0725 14.756V10.262H72.1505V14.49C72.1505 15.834 72.8645 16.674 74.1525 16.674C75.3845 16.674 76.3225 15.764 76.3225 14.406V10.262H77.3865V17.5H76.3225V16.24C75.8325 17.024 75.0905 17.654 73.8445 17.654ZM82.2054 17.64C81.1554 17.64 80.0354 17.234 79.2094 16.576L79.7554 15.806C80.5394 16.408 81.4074 16.73 82.2614 16.73C83.1434 16.73 83.7594 16.296 83.7594 15.582V15.554C83.7594 14.84 82.9054 14.546 81.9534 14.28C80.8334 13.944 79.5594 13.58 79.5594 12.236V12.208C79.5594 10.962 80.5954 10.136 82.0234 10.136C82.9194 10.136 83.8854 10.444 84.6274 10.934L84.1374 11.746C83.4654 11.312 82.7094 11.046 81.9954 11.046C81.1414 11.046 80.5954 11.494 80.5954 12.096V12.124C80.5954 12.81 81.4914 13.076 82.4574 13.37C83.5774 13.706 84.7814 14.14 84.7814 15.442V15.47C84.7814 16.842 83.6474 17.64 82.2054 17.64ZM89.9481 17.668C87.9741 17.668 86.3361 16.142 86.3361 13.902V13.874C86.3361 11.788 87.7921 10.108 89.8081 10.108C91.9501 10.108 93.1821 11.816 93.1821 13.93C93.1821 14.084 93.1821 14.154 93.1681 14.28H87.4281C87.5821 15.848 88.6881 16.73 89.9761 16.73C90.9841 16.73 91.6561 16.324 92.2581 15.708L92.9301 16.31C92.2021 17.136 91.3341 17.668 89.9481 17.668ZM87.4281 13.482H92.0901C91.9781 12.18 91.2361 11.018 89.7801 11.018C88.5061 11.018 87.5821 12.082 87.4281 13.482ZM95.0692 17.5V10.262H96.1472V12.152C96.6792 10.948 97.7292 10.094 99.1012 10.136V11.298H99.0172C97.4352 11.298 96.1472 12.432 96.1472 14.616V17.5H95.0692ZM103.137 17.64C102.087 17.64 100.967 17.234 100.141 16.576L100.687 15.806C101.471 16.408 102.339 16.73 103.193 16.73C104.075 16.73 104.691 16.296 104.691 15.582V15.554C104.691 14.84 103.837 14.546 102.885 14.28C101.765 13.944 100.491 13.58 100.491 12.236V12.208C100.491 10.962 101.527 10.136 102.955 10.136C103.851 10.136 104.817 10.444 105.559 10.934L105.069 11.746C104.397 11.312 103.641 11.046 102.927 11.046C102.073 11.046 101.527 11.494 101.527 12.096V12.124C101.527 12.81 102.423 13.076 103.389 13.37C104.509 13.706 105.713 14.14 105.713 15.442V15.47C105.713 16.842 104.579 17.64 103.137 17.64Z" fill="white"/>
<path d="M135 2C129.486 2 125 6.486 125 12C125 17.514 129.486 22 135 22C140.514 22 145 17.514 145 12C145 6.486 140.514 2 135 2ZM133.001 16.413L129.288 12.708L130.7 11.292L132.999 13.587L138.293 8.293L139.707 9.707L133.001 16.413Z" fill="white"/>
<path d="M155.546 17.5L160.012 7.63H161.048L165.514 17.5H164.324L163.176 14.91H157.842L156.68 17.5H155.546ZM158.276 13.916H162.742L160.516 8.918L158.276 13.916ZM167.363 17.5V7.28H168.441V17.5H167.363ZM171.04 17.5V7.28H172.118V17.5H171.04ZM178.159 17.5L182.625 7.63H183.661L188.127 17.5H186.937L185.789 14.91H180.455L179.293 17.5H178.159ZM180.889 13.916H185.355L183.129 8.918L180.889 13.916ZM192.784 17.668C190.656 17.668 189.074 15.946 189.074 13.916V13.888C189.074 11.83 190.656 10.108 192.784 10.108C194.156 10.108 194.996 10.668 195.682 11.396L194.968 12.152C194.394 11.55 193.764 11.06 192.77 11.06C191.3 11.06 190.18 12.292 190.18 13.86V13.888C190.18 15.456 191.328 16.702 192.84 16.702C193.778 16.702 194.478 16.24 195.052 15.624L195.738 16.268C195.01 17.094 194.142 17.668 192.784 17.668ZM200.577 17.668C198.449 17.668 196.867 15.946 196.867 13.916V13.888C196.867 11.83 198.449 10.108 200.577 10.108C201.949 10.108 202.789 10.668 203.475 11.396L202.761 12.152C202.187 11.55 201.557 11.06 200.563 11.06C199.093 11.06 197.973 12.292 197.973 13.86V13.888C197.973 15.456 199.121 16.702 200.633 16.702C201.571 16.702 202.271 16.24 202.845 15.624L203.531 16.268C202.803 17.094 201.935 17.668 200.577 17.668ZM208.272 17.668C206.298 17.668 204.66 16.142 204.66 13.902V13.874C204.66 11.788 206.116 10.108 208.132 10.108C210.274 10.108 211.506 11.816 211.506 13.93C211.506 14.084 211.506 14.154 211.492 14.28H205.752C205.906 15.848 207.012 16.73 208.3 16.73C209.308 16.73 209.98 16.324 210.582 15.708L211.254 16.31C210.526 17.136 209.658 17.668 208.272 17.668ZM205.752 13.482H210.414C210.302 12.18 209.56 11.018 208.104 11.018C206.83 11.018 205.906 12.082 205.752 13.482ZM215.787 17.64C214.737 17.64 213.617 17.234 212.791 16.576L213.337 15.806C214.121 16.408 214.989 16.73 215.843 16.73C216.725 16.73 217.341 16.296 217.341 15.582V15.554C217.341 14.84 216.487 14.546 215.535 14.28C214.415 13.944 213.141 13.58 213.141 12.236V12.208C213.141 10.962 214.177 10.136 215.605 10.136C216.501 10.136 217.467 10.444 218.209 10.934L217.719 11.746C217.047 11.312 216.291 11.046 215.577 11.046C214.723 11.046 214.177 11.494 214.177 12.096V12.124C214.177 12.81 215.073 13.076 216.039 13.37C217.159 13.706 218.363 14.14 218.363 15.442V15.47C218.363 16.842 217.229 17.64 215.787 17.64ZM222.623 17.64C221.573 17.64 220.453 17.234 219.627 16.576L220.173 15.806C220.957 16.408 221.825 16.73 222.679 16.73C223.561 16.73 224.177 16.296 224.177 15.582V15.554C224.177 14.84 223.323 14.546 222.371 14.28C221.251 13.944 219.977 13.58 219.977 12.236V12.208C219.977 10.962 221.013 10.136 222.441 10.136C223.337 10.136 224.303 10.444 225.045 10.934L224.555 11.746C223.883 11.312 223.127 11.046 222.413 11.046C221.559 11.046 221.013 11.494 221.013 12.096V12.124C221.013 12.81 221.909 13.076 222.875 13.37C223.995 13.706 225.199 14.14 225.199 15.442V15.47C225.199 16.842 224.065 17.64 222.623 17.64ZM236.061 17.668C233.233 17.668 231.147 15.442 231.147 12.628V12.6C231.147 9.828 233.233 7.532 236.103 7.532C237.881 7.532 238.959 8.148 239.925 9.086L239.169 9.898C238.329 9.114 237.433 8.554 236.089 8.554C233.919 8.554 232.295 10.318 232.295 12.572V12.6C232.295 14.868 233.919 16.646 236.089 16.646C237.433 16.646 238.315 16.128 239.253 15.232L239.981 15.946C238.973 16.982 237.825 17.668 236.061 17.668ZM241.888 17.5V7.28H242.966V17.5H241.888ZM247.624 17.654C246.28 17.654 244.922 16.898 244.922 15.4V15.372C244.922 13.86 246.182 13.034 248.016 13.034C248.954 13.034 249.584 13.16 250.242 13.342V13.09C250.242 11.788 249.444 11.116 248.086 11.116C247.232 11.116 246.56 11.326 245.888 11.648L245.566 10.766C246.364 10.388 247.134 10.164 248.198 10.164C249.22 10.164 250.004 10.43 250.536 10.962C251.026 11.452 251.278 12.166 251.278 13.076V17.5H250.242V16.408C249.738 17.066 248.912 17.654 247.624 17.654ZM247.834 16.8C249.178 16.8 250.256 15.988 250.256 14.84V14.14C249.71 13.986 249.024 13.832 248.128 13.832C246.77 13.832 246.014 14.42 246.014 15.33V15.358C246.014 16.268 246.868 16.8 247.834 16.8ZM255.969 17.64C254.919 17.64 253.799 17.234 252.973 16.576L253.519 15.806C254.303 16.408 255.171 16.73 256.025 16.73C256.907 16.73 257.523 16.296 257.523 15.582V15.554C257.523 14.84 256.669 14.546 255.717 14.28C254.597 13.944 253.323 13.58 253.323 12.236V12.208C253.323 10.962 254.359 10.136 255.787 10.136C256.683 10.136 257.649 10.444 258.391 10.934L257.901 11.746C257.229 11.312 256.473 11.046 255.759 11.046C254.905 11.046 254.359 11.494 254.359 12.096V12.124C254.359 12.81 255.255 13.076 256.221 13.37C257.341 13.706 258.545 14.14 258.545 15.442V15.47C258.545 16.842 257.411 17.64 255.969 17.64ZM262.805 17.64C261.755 17.64 260.635 17.234 259.809 16.576L260.355 15.806C261.139 16.408 262.007 16.73 262.861 16.73C263.743 16.73 264.359 16.296 264.359 15.582V15.554C264.359 14.84 263.505 14.546 262.553 14.28C261.433 13.944 260.159 13.58 260.159 12.236V12.208C260.159 10.962 261.195 10.136 262.623 10.136C263.519 10.136 264.485 10.444 265.227 10.934L264.737 11.746C264.065 11.312 263.309 11.046 262.595 11.046C261.741 11.046 261.195 11.494 261.195 12.096V12.124C261.195 12.81 262.091 13.076 263.057 13.37C264.177 13.706 265.381 14.14 265.381 15.442V15.47C265.381 16.842 264.247 17.64 262.805 17.64Z" fill="white"/>
<path d="M295 2C289.486 2 285 6.486 285 12C285 17.514 289.486 22 295 22C300.514 22 305 17.514 305 12C305 6.486 300.514 2 295 2ZM293.001 16.413L289.288 12.708L290.7 11.292L292.999 13.587L298.293 8.293L299.707 9.707L293.001 16.413Z" fill="white"/>
<path d="M316.386 17.5V7.7H317.506L321.076 13.048L324.646 7.7H325.766V17.5H324.66V9.562L321.09 14.812H321.034L317.464 9.576V17.5H316.386ZM331.662 17.668C329.492 17.668 327.91 15.96 327.91 13.916V13.888C327.91 11.83 329.492 10.108 331.69 10.108C333.874 10.108 335.456 11.816 335.456 13.86V13.888C335.456 15.946 333.846 17.668 331.662 17.668ZM331.69 16.702C333.258 16.702 334.35 15.428 334.35 13.916V13.888C334.35 12.334 333.188 11.06 331.662 11.06C330.094 11.06 329.016 12.334 329.016 13.86V13.888C329.016 15.442 330.164 16.702 331.69 16.702ZM337.409 17.5V10.262H338.487V12.152C339.019 10.948 340.069 10.094 341.441 10.136V11.298H341.357C339.775 11.298 338.487 12.432 338.487 14.616V17.5H337.409ZM345.932 17.668C343.958 17.668 342.32 16.142 342.32 13.902V13.874C342.32 11.788 343.776 10.108 345.792 10.108C347.934 10.108 349.166 11.816 349.166 13.93C349.166 14.084 349.166 14.154 349.152 14.28H343.412C343.566 15.848 344.672 16.73 345.96 16.73C346.968 16.73 347.64 16.324 348.242 15.708L348.914 16.31C348.186 17.136 347.318 17.668 345.932 17.668ZM343.412 13.482H348.074C347.962 12.18 347.22 11.018 345.764 11.018C344.49 11.018 343.566 12.082 343.412 13.482ZM355.433 17.5V7.7H362.475V8.722H356.539V12.222H361.845V13.23H356.539V17.5H355.433ZM367.397 17.668C365.423 17.668 363.785 16.142 363.785 13.902V13.874C363.785 11.788 365.241 10.108 367.257 10.108C369.399 10.108 370.631 11.816 370.631 13.93C370.631 14.084 370.631 14.154 370.617 14.28H364.877C365.031 15.848 366.137 16.73 367.425 16.73C368.433 16.73 369.105 16.324 369.707 15.708L370.379 16.31C369.651 17.136 368.783 17.668 367.397 17.668ZM364.877 13.482H369.539C369.427 12.18 368.685 11.018 367.229 11.018C365.955 11.018 365.031 12.082 364.877 13.482ZM374.674 17.654C373.33 17.654 371.972 16.898 371.972 15.4V15.372C371.972 13.86 373.232 13.034 375.066 13.034C376.004 13.034 376.634 13.16 377.292 13.342V13.09C377.292 11.788 376.494 11.116 375.136 11.116C374.282 11.116 373.61 11.326 372.938 11.648L372.616 10.766C373.414 10.388 374.184 10.164 375.248 10.164C376.27 10.164 377.054 10.43 377.586 10.962C378.076 11.452 378.328 12.166 378.328 13.076V17.5H377.292V16.408C376.788 17.066 375.962 17.654 374.674 17.654ZM374.884 16.8C376.228 16.8 377.306 15.988 377.306 14.84V14.14C376.76 13.986 376.074 13.832 375.178 13.832C373.82 13.832 373.064 14.42 373.064 15.33V15.358C373.064 16.268 373.918 16.8 374.884 16.8ZM382.98 17.626C381.804 17.626 380.936 17.052 380.936 15.582V11.214H379.928V10.262H380.936V8.078H382.014V10.262H384.31V11.214H382.014V15.442C382.014 16.338 382.504 16.646 383.232 16.646C383.61 16.646 383.904 16.576 384.282 16.394V17.318C383.904 17.528 383.498 17.626 382.98 17.626ZM388.878 17.654C387.142 17.654 386.106 16.478 386.106 14.756V10.262H387.184V14.49C387.184 15.834 387.898 16.674 389.186 16.674C390.418 16.674 391.356 15.764 391.356 14.406V10.262H392.42V17.5H391.356V16.24C390.866 17.024 390.124 17.654 388.878 17.654ZM394.845 17.5V10.262H395.923V12.152C396.455 10.948 397.505 10.094 398.877 10.136V11.298H398.793C397.211 11.298 395.923 12.432 395.923 14.616V17.5H394.845ZM403.368 17.668C401.394 17.668 399.756 16.142 399.756 13.902V13.874C399.756 11.788 401.212 10.108 403.228 10.108C405.37 10.108 406.602 11.816 406.602 13.93C406.602 14.084 406.602 14.154 406.588 14.28H400.848C401.002 15.848 402.108 16.73 403.396 16.73C404.404 16.73 405.076 16.324 405.678 15.708L406.35 16.31C405.622 17.136 404.754 17.668 403.368 17.668ZM400.848 13.482H405.51C405.398 12.18 404.656 11.018 403.2 11.018C401.926 11.018 401.002 12.082 400.848 13.482ZM410.883 17.64C409.833 17.64 408.713 17.234 407.887 16.576L408.433 15.806C409.217 16.408 410.085 16.73 410.939 16.73C411.821 16.73 412.437 16.296 412.437 15.582V15.554C412.437 14.84 411.583 14.546 410.631 14.28C409.511 13.944 408.237 13.58 408.237 12.236V12.208C408.237 10.962 409.273 10.136 410.701 10.136C411.597 10.136 412.563 10.444 413.305 10.934L412.815 11.746C412.143 11.312 411.387 11.046 410.673 11.046C409.819 11.046 409.273 11.494 409.273 12.096V12.124C409.273 12.81 410.169 13.076 411.135 13.37C412.255 13.706 413.459 14.14 413.459 15.442V15.47C413.459 16.842 412.325 17.64 410.883 17.64Z" fill="white"/>
</svg>
